<svg width="100" height="18" viewBox="0 0 100 18" fill="none" xmlns="http://www.w3.org/2000/svg">
<path d="M84.635 17.499C84.5592 17.5186 84.4796 17.5186 84.4038 17.499C84.3481 17.4531 84.3058 17.393 84.2814 17.3251C84.257 17.2571 84.2513 17.1838 84.265 17.1129L85.2672 11.2903L80.8267 6.93491C80.7765 6.8826 80.7414 6.81763 80.7251 6.74693C80.7088 6.67622 80.712 6.60242 80.7342 6.53335C80.7581 6.46497 80.8016 6.40511 80.8591 6.36119C80.9167 6.31727 80.9858 6.29122 81.058 6.28624L87.3486 5.48312L90.016 0.370949C90.0493 0.310015 90.0984 0.259206 90.1581 0.22387C90.2178 0.188534 90.2859 0.169978 90.3552 0.170167V0.170167C90.4246 0.169978 90.4927 0.188534 90.5524 0.22387C90.6121 0.259206 90.6611 0.310015 90.6944 0.370949L93.3618 5.48312L99.6679 6.28624C99.7373 6.29406 99.8031 6.32142 99.8577 6.36515C99.9123 6.40888 99.9534 6.4672 99.9762 6.53335C100.002 6.60195 100.007 6.67672 99.9908 6.7482C99.9743 6.81968 99.9371 6.88466 99.8837 6.93491L95.4432 11.2903L96.4609 17.1129C96.4747 17.1841 96.4683 17.2578 96.4423 17.3255C96.4162 17.3932 96.3717 17.4521 96.3138 17.4957C96.2559 17.5392 96.1869 17.5655 96.1147 17.5715C96.0426 17.5776 95.9702 17.5632 95.9058 17.5299L90.3552 14.7499L84.8046 17.5299C84.7463 17.536 84.6875 17.5253 84.635 17.499V17.499ZM81.9368 6.87313L85.961 10.8115C86.0021 10.8572 86.0329 10.9111 86.0516 10.9697C86.0702 11.0283 86.0761 11.0902 86.0689 11.1513L85.1438 16.4179L90.1856 13.9004C90.2372 13.8706 90.2957 13.8549 90.3552 13.8549C90.4148 13.8549 90.4733 13.8706 90.5248 13.9004L95.5666 16.4179L94.6415 11.1513C94.6328 11.0889 94.6395 11.0253 94.661 10.966C94.6825 10.9068 94.7182 10.8538 94.7649 10.8115L98.7736 6.87313L93.0688 6.14724C93.006 6.13815 92.9464 6.11365 92.8953 6.07593C92.8442 6.03821 92.8032 5.98843 92.7759 5.93102L90.3552 1.29763L87.9346 5.93102C87.9098 5.9902 87.8695 6.04156 87.8179 6.07963C87.7663 6.1177 87.7054 6.14107 87.6416 6.14724L81.9368 6.87313Z" fill="url(#paint0_linear)"/>
<path d="M79.7082 6.85762L75.2678 11.213L76.2854 17.0356C76.3 17.1058 76.2931 17.1787 76.2656 17.2449C76.2381 17.311 76.1912 17.3673 76.1312 17.4063C76.073 17.449 76.0028 17.472 75.9308 17.472C75.8587 17.472 75.7885 17.449 75.7303 17.4063L70.1797 14.6417L64.6446 17.4372H64.4595C64.3769 17.4326 64.2971 17.406 64.2283 17.36C64.1725 17.3176 64.1299 17.2603 64.1054 17.1947C64.0808 17.1291 64.0753 17.0579 64.0895 16.9893L65.1071 11.1667L60.6667 6.81129C60.6138 6.7606 60.5758 6.69638 60.5568 6.62559C60.5377 6.5548 60.5384 6.48015 60.5587 6.40972C60.5819 6.33949 60.6248 6.27741 60.6822 6.23086C60.7396 6.18431 60.8091 6.15526 60.8825 6.14717L67.1732 5.34405L69.8405 0.247322C69.8717 0.183504 69.9199 0.12955 69.9798 0.0913995C70.0396 0.0532489 70.1088 0.032383 70.1797 0.0310984C70.2533 0.0294857 70.3257 0.0489847 70.3886 0.0872989C70.4514 0.125613 70.502 0.181141 70.5344 0.247322L73.1863 5.34405L79.4924 6.14717C79.563 6.15799 79.6293 6.18828 79.6837 6.23465C79.7382 6.28101 79.7787 6.34163 79.8007 6.40972C79.835 6.48451 79.8445 6.5683 79.8278 6.64887C79.8112 6.72944 79.7693 6.80258 79.7082 6.85762Z" fill="url(#paint1_linear)"/>
<path d="M59.4875 6.85751L55.0471 11.2129L56.1263 17.0355C56.141 17.1057 56.1341 17.1786 56.1065 17.2448C56.079 17.3109 56.0322 17.3672 55.9722 17.4062C55.914 17.4489 55.8438 17.4719 55.7717 17.4719C55.6996 17.4719 55.6294 17.4489 55.5713 17.4062L49.959 14.6725L44.4084 17.4371C44.353 17.453 44.2943 17.453 44.2388 17.4371C44.1562 17.4325 44.0764 17.4058 44.0076 17.3599C43.9518 17.3175 43.9092 17.2602 43.8847 17.1946C43.8601 17.129 43.8546 17.0578 43.8688 16.9892L44.871 11.1666L40.446 6.81118C40.3931 6.76049 40.3551 6.69627 40.336 6.62548C40.317 6.5547 40.3177 6.48004 40.338 6.40962C40.3612 6.33938 40.4041 6.2773 40.4615 6.23075C40.5189 6.18421 40.5884 6.15516 40.6618 6.14706L46.9525 5.34394L49.6198 0.247216C49.6495 0.182259 49.6974 0.127292 49.7576 0.0889304C49.8177 0.0505689 49.8877 0.0304493 49.959 0.0309919C50.0308 0.0284041 50.1016 0.0476887 50.1622 0.0862969C50.2227 0.124905 50.2702 0.181017 50.2982 0.247216L53.0427 5.39027L59.3488 6.19339C59.4194 6.20422 59.4856 6.23451 59.5401 6.28087C59.5946 6.32724 59.6351 6.38786 59.6571 6.45596C59.6725 6.53221 59.6646 6.61135 59.6343 6.68301C59.6041 6.75466 59.5529 6.81549 59.4875 6.85751Z" fill="url(#paint2_linear)"/>
<path d="M39.3056 6.85764L34.8651 11.213L35.8827 17.0357C35.8934 17.1057 35.8847 17.1773 35.8575 17.2426C35.8303 17.308 35.7857 17.3646 35.7285 17.4063C35.6695 17.4468 35.5996 17.4685 35.5281 17.4685C35.4565 17.4685 35.3867 17.4468 35.3276 17.4063L29.7771 14.6417L24.2265 17.4063C24.1711 17.4222 24.1123 17.4222 24.0569 17.4063C23.9743 17.4018 23.8944 17.3751 23.8256 17.3291C23.7699 17.2868 23.7273 17.2295 23.7027 17.1639C23.6781 17.0983 23.6726 17.027 23.6868 16.9584L24.689 11.1358L20.2486 6.78042C20.1997 6.72725 20.1656 6.66228 20.1493 6.59189C20.1331 6.52149 20.1354 6.44808 20.1561 6.37886C20.1792 6.30862 20.2221 6.24654 20.2795 6.19999C20.3369 6.15345 20.4064 6.1244 20.4798 6.1163L26.7705 5.31318L29.4379 0.216454C29.4676 0.151498 29.5154 0.0965303 29.5756 0.0581687C29.6358 0.0198072 29.7057 -0.000312466 29.7771 0.000230159C29.8488 -0.00235764 29.9196 0.016927 29.9802 0.0555351C30.0408 0.0941433 30.0882 0.150256 30.1163 0.216454L32.7836 5.31318L39.0897 6.1163C39.1604 6.12713 39.2266 6.15742 39.2811 6.20378C39.3355 6.25015 39.376 6.31076 39.3981 6.37886C39.44 6.45714 39.4537 6.54751 39.4368 6.63473C39.42 6.72195 39.3736 6.80068 39.3056 6.85764V6.85764Z" fill="url(#paint3_linear)"/>
<path d="M19.1669 6.85754L14.7264 11.2129L15.744 17.0355C15.7547 17.1056 15.746 17.1772 15.7188 17.2425C15.6916 17.3079 15.647 17.3645 15.5898 17.4062C15.5222 17.4545 15.4416 17.4814 15.3586 17.4834C15.3029 17.4972 15.2447 17.4972 15.189 17.4834L9.63839 14.7189L4.08781 17.4834C4.02879 17.524 3.95892 17.5456 3.88737 17.5456C3.81583 17.5456 3.74596 17.524 3.68694 17.4834C3.63217 17.4397 3.58932 17.3827 3.56237 17.3179C3.53542 17.2531 3.52523 17.1826 3.53275 17.1128L4.55036 11.2901L0.109898 6.85754C0.0610743 6.80437 0.0268778 6.7394 0.0106607 6.66901C-0.00555632 6.59862 -0.00323817 6.52521 0.0173878 6.45598C0.0405769 6.38575 0.0834199 6.32366 0.140821 6.27711C0.198221 6.23057 0.267763 6.20152 0.341172 6.19342L6.63182 5.3903L9.26835 0.293579C9.29713 0.227443 9.34456 0.171157 9.40481 0.131629C9.46507 0.0921003 9.53553 0.0710449 9.60755 0.0710449C9.67958 0.0710449 9.75004 0.0921003 9.81029 0.131629C9.87054 0.171157 9.91797 0.227443 9.94675 0.293579L12.6141 5.3903L18.9202 6.19342C18.9908 6.20425 19.0571 6.23454 19.1115 6.2809C19.166 6.32727 19.2065 6.38789 19.2285 6.45598C19.2565 6.52205 19.2656 6.59461 19.2547 6.66555C19.2438 6.73648 19.2134 6.80296 19.1669 6.85754V6.85754Z" fill="url(#paint4_linear)"/>
<defs>
<linearGradient id="paint0_linear" x1="90.3576" y1="0.170166" x2="90.3576" y2="17.5729" gradientUnits="userSpaceOnUse">
<stop stop-color="#FFB700"/>
<stop offset="1" stop-color="#FFE600"/>
</linearGradient>
<linearGradient id="paint1_linear" x1="70.1894" y1="0.0310059" x2="70.1894" y2="17.472" gradientUnits="userSpaceOnUse">
<stop stop-color="#FFB700"/>
<stop offset="1" stop-color="#FFE600"/>
</linearGradient>
<linearGradient id="paint2_linear" x1="49.9935" y1="0.0307617" x2="49.9935" y2="17.4719" gradientUnits="userSpaceOnUse">
<stop stop-color="#FFB700"/>
<stop offset="1" stop-color="#FFE600"/>
</linearGradient>
<linearGradient id="paint3_linear" x1="29.7913" y1="0" x2="29.7913" y2="17.4685" gradientUnits="userSpaceOnUse">
<stop stop-color="#FFB700"/>
<stop offset="1" stop-color="#FFE600"/>
</linearGradient>
<linearGradient id="paint4_linear" x1="9.62959" y1="0.0710449" x2="9.62959" y2="17.5456" gradientUnits="userSpaceOnUse">
<stop stop-color="#FFB700"/>
<stop offset="1" stop-color="#FFE600"/>
</linearGradient>
</defs>
</svg>
