<svg width="320" height="122" viewBox="0 0 320 122" fill="none" xmlns="http://www.w3.org/2000/svg">
<g filter="url(#filter0_d)">
<rect x="9" y="5" width="297" height="60" rx="5" fill="url(#paint0_linear)"/>
<rect x="6.5" y="2.5" width="302" height="65" rx="7.5" stroke="#FFC828" stroke-width="5"/>
</g>
<g filter="url(#filter1_i)">
<path d="M39.79 39.1689C39.5 41.7148 38.5601 43.729 36.9702 45.2114C35.3911 46.6831 33.3877 47.3867 30.96 47.3223C28.876 47.2793 27.2646 46.5918 26.126 45.2598C24.9873 43.9277 24.3857 42.0801 24.3213 39.7168C24.2998 38.9111 24.3428 38.1001 24.4502 37.2837L25.0464 33.4004C25.5513 30.0811 26.6416 27.5405 28.3174 25.7788C30.0039 24.0171 32.0933 23.1631 34.5854 23.2168C36.7661 23.249 38.4419 23.9741 39.6128 25.3921C40.7837 26.7993 41.3691 28.8457 41.3691 31.5312L36.7124 31.5151L36.7446 29.9199C36.7124 28.1152 35.8691 27.186 34.2148 27.1323C32.9365 27.0894 31.9268 27.5566 31.1855 28.5342C30.4443 29.501 29.9448 31.0747 29.687 33.2554L29.1069 37.2998C28.9565 38.5889 28.876 39.4321 28.8652 39.8296C28.7578 42.1499 29.5742 43.3477 31.3145 43.4229C32.3994 43.4766 33.2642 43.1919 33.9087 42.5688C34.5532 41.9351 35.0044 40.8125 35.2622 39.2012L39.79 39.1689ZM49.6836 47.3223C47.6211 47.2793 45.9829 46.6025 44.769 45.292C43.5659 43.9814 42.9106 42.1606 42.8032 39.8296C42.7603 39.0239 42.7925 38.2075 42.8999 37.3804L43.4961 33.481C43.8076 31.397 44.4146 29.5493 45.3169 27.938C46.2192 26.3267 47.3418 25.1289 48.6846 24.3447C50.0273 23.5605 51.542 23.1846 53.2285 23.2168C55.3125 23.2598 56.9453 23.9741 58.127 25.3599C59.3193 26.7349 59.9585 28.6201 60.0444 31.0156C60.0659 31.918 60.0176 32.772 59.8994 33.5776L59.3677 37.1709C58.8843 40.3936 57.7939 42.9072 56.0967 44.7119C54.4102 46.5059 52.2725 47.376 49.6836 47.3223ZM55.2749 33.4165C55.4038 32.3101 55.4683 31.4561 55.4683 30.8545C55.4146 28.459 54.5498 27.229 52.874 27.1646C51.585 27.1108 50.543 27.5996 49.748 28.6309C48.9639 29.6514 48.416 31.2573 48.1045 33.4487L47.5405 37.3965C47.4116 38.46 47.3633 39.2925 47.3955 39.894C47.4492 42.1499 48.3354 43.3154 50.0542 43.3906C51.2788 43.4336 52.2832 42.9824 53.0674 42.0371C53.8516 41.0918 54.3994 39.5449 54.7109 37.3965L55.2749 33.4165ZM71.0981 23.5391L72.4678 40.4097L79.6704 23.5391H85.7612L81.6846 47H77.0439L78.1719 40.5063L80.2021 31.2412L73.0156 47H69.8735L68.1011 30.7095L66.7637 40.8125L65.7002 47H61.0757L65.1362 23.5391H71.0981ZM91.562 38.75L90.1279 47H85.5034L89.564 23.5391L97.0889 23.5552C99.1406 23.6196 100.747 24.3555 101.907 25.7627C103.078 27.1592 103.572 28.9639 103.389 31.1768C103.174 33.4756 102.304 35.3179 100.779 36.7036C99.2534 38.0786 97.3091 38.7661 94.9458 38.7661L91.562 38.75ZM92.2388 34.8022L95.2197 34.8345C96.3691 34.813 97.2607 34.3726 97.8945 33.5132C98.5283 32.6431 98.8291 31.4775 98.7969 30.0166C98.7754 29.2754 98.5981 28.6846 98.2651 28.2441C97.9321 27.8037 97.4702 27.562 96.8794 27.519L93.5117 27.4868L92.2388 34.8022ZM112.348 38.4277H109.996L108.513 47H103.889L107.949 23.5391L115.039 23.5552C117.134 23.6196 118.74 24.2642 119.857 25.4888C120.974 26.7134 121.447 28.3838 121.275 30.5C121.006 33.7119 119.545 35.9463 116.892 37.2031L119.245 46.7422V47H114.282L112.348 38.4277ZM110.672 34.48L113.105 34.5122C114.223 34.4907 115.104 34.0503 115.748 33.1909C116.393 32.3208 116.709 31.1714 116.699 29.7427C116.656 28.3354 116.038 27.5889 114.846 27.5029L111.897 27.4868L110.672 34.48ZM133.505 42.1982H127.269L125.223 47H120.195L131.378 23.5391H135.616L138.693 47H133.908L133.505 42.1982ZM128.961 38.2505H133.183L132.522 29.936L128.961 38.2505ZM149.505 38.4277H147.153L145.67 47H141.046L145.106 23.5391L152.196 23.5552C154.291 23.6196 155.897 24.2642 157.014 25.4888C158.131 26.7134 158.604 28.3838 158.432 30.5C158.164 33.7119 156.703 35.9463 154.049 37.2031L156.402 46.7422V47H151.439L149.505 38.4277ZM147.83 34.48L150.263 34.5122C151.38 34.4907 152.261 34.0503 152.905 33.1909C153.55 32.3208 153.867 31.1714 153.856 29.7427C153.813 28.3354 153.195 27.5889 152.003 27.5029L149.054 27.4868L147.83 34.48ZM178.203 42.1982H171.967L169.921 47H164.894L176.076 23.5391H180.314L183.392 47H178.606L178.203 42.1982ZM173.659 38.2505H177.881L177.22 29.936L173.659 38.2505ZM201.503 44.3413C200.633 45.3081 199.5 46.0547 198.103 46.5811C196.707 47.0967 195.208 47.3438 193.607 47.3223C192.2 47.3115 190.981 47.0054 189.95 46.4038C188.918 45.7915 188.118 44.9106 187.549 43.7612C186.99 42.6011 186.689 41.269 186.646 39.7651C186.614 38.9487 186.652 38.1162 186.759 37.2676L187.339 33.3843C187.833 30.1187 188.897 27.5942 190.53 25.811C192.163 24.0278 194.29 23.1631 196.911 23.2168C199.145 23.2598 200.826 23.9365 201.954 25.2471C203.093 26.5469 203.673 28.4751 203.694 31.0317L199.199 31.0156L199.15 29.7266C199.011 28.0508 198.189 27.186 196.685 27.1323C194.461 27.0464 193 28.5127 192.302 31.5312L192.061 32.7397L191.416 37.2676C191.276 38.2988 191.223 39.1797 191.255 39.9102C191.309 41.1133 191.577 41.9888 192.061 42.5366C192.555 43.0737 193.248 43.353 194.139 43.3745C194.977 43.396 195.912 43.1221 196.943 42.5527L197.765 38.2344H194.526L195.154 34.6572H202.985L201.503 44.3413ZM212.363 47.3223C210.301 47.2793 208.663 46.6025 207.449 45.292C206.246 43.9814 205.59 42.1606 205.483 39.8296C205.44 39.0239 205.472 38.2075 205.58 37.3804L206.176 33.481C206.487 31.397 207.094 29.5493 207.997 27.938C208.899 26.3267 210.021 25.1289 211.364 24.3447C212.707 23.5605 214.222 23.1846 215.908 23.2168C217.992 23.2598 219.625 23.9741 220.807 25.3599C221.999 26.7349 222.638 28.6201 222.724 31.0156C222.746 31.918 222.697 32.772 222.579 33.5776L222.047 37.1709C221.564 40.3936 220.474 42.9072 218.776 44.7119C217.09 46.5059 214.952 47.376 212.363 47.3223ZM217.955 33.4165C218.083 32.3101 218.148 31.4561 218.148 30.8545C218.094 28.459 217.229 27.229 215.554 27.1646C214.265 27.1108 213.223 27.5996 212.428 28.6309C211.644 29.6514 211.096 31.2573 210.784 33.4487L210.22 37.3965C210.091 38.46 210.043 39.2925 210.075 39.894C210.129 42.1499 211.015 43.3154 212.734 43.3906C213.958 43.4336 214.963 42.9824 215.747 42.0371C216.531 41.0918 217.079 39.5449 217.391 37.3965L217.955 33.4165ZM232.231 38.4277H229.878L228.396 47H223.771L227.832 23.5391L234.922 23.5552C237.017 23.6196 238.623 24.2642 239.74 25.4888C240.857 26.7134 241.33 28.3838 241.158 30.5C240.889 33.7119 239.428 35.9463 236.775 37.2031L239.127 46.7422V47H234.165L232.231 38.4277ZM230.555 34.48L232.988 34.5122C234.105 34.4907 234.986 34.0503 235.631 33.1909C236.275 32.3208 236.592 31.1714 236.582 29.7427C236.539 28.3354 235.921 27.5889 234.729 27.5029L231.78 27.4868L230.555 34.48ZM253.388 42.1982H247.152L245.105 47H240.078L251.261 23.5391H255.499L258.576 47H253.791L253.388 42.1982ZM248.844 38.2505H253.065L252.405 29.936L248.844 38.2505ZM266.488 39.7812H262.798L265.102 23.5391H269.823L266.488 39.7812ZM261.332 44.873C261.332 44.1318 261.562 43.5195 262.024 43.0361C262.497 42.5527 263.077 42.3003 263.765 42.2788C264.452 42.2788 265.027 42.5098 265.489 42.9717C265.951 43.4336 266.182 44.0083 266.182 44.6958C266.182 45.437 265.956 46.0493 265.505 46.5327C265.054 47.0161 264.474 47.2686 263.765 47.29C263.045 47.29 262.459 47.0537 262.008 46.5811C261.557 46.1084 261.332 45.5391 261.332 44.873Z" fill="#275A70"/>
</g>
<path d="M299.056 50.4172C298.582 49.3382 297.506 48.0086 295.02 49.1012L292.83 50.0641L290.743 45.3162C289.486 42.4566 286.365 42.2452 284.781 43.7571C283.634 44.8517 283.112 46.5967 283.867 48.3127L291.269 65.2574C289.466 63.8919 286.023 63.9073 284.481 65.4946L284.522 65.4337C282.884 67.1197 283.159 69.5094 285.643 71.5973L298.9 82.031L317.891 73.6821L317.995 72.0273C318.263 67.7217 317.498 63.4144 315.762 59.4652L314.324 56.1951C314.25 56.0256 314.168 55.86 314.08 55.6987C313.077 53.8658 310.833 53.1103 308.917 53.9433L307.49 54.5639L305.877 50.8951C305.172 49.2894 303.29 48.559 301.689 49.2765L299.056 50.4172Z" fill="white"/>
<path d="M316.636 59.081L315.198 55.811C315.113 55.6173 315.019 55.4253 314.918 55.2405C314.318 54.1442 313.334 53.3188 312.147 52.9164C310.964 52.5153 309.681 52.5688 308.535 53.0672L307.981 53.3081L307.273 51.6978C307.273 51.6976 307.273 51.6974 307.273 51.6972L306.752 50.5109C306.306 49.4972 305.491 48.7195 304.457 48.3211C303.428 47.9248 302.308 47.9536 301.303 48.402L299.465 49.1983C299.125 48.7146 298.712 48.3455 298.231 48.0963C297.225 47.5758 296.015 47.6196 294.635 48.2266L293.319 48.8047L291.617 44.9319C290.924 43.3553 289.637 42.2734 288.088 41.9637C286.631 41.6725 285.148 42.0846 284.12 43.0659C282.577 44.5382 282.134 46.7489 282.99 48.6958L289.439 63.4587C288.899 63.3495 288.33 63.2995 287.752 63.3135C286.253 63.3505 284.904 63.8275 284.001 64.6317C283.941 64.6702 283.886 64.7157 283.835 64.7683C282.927 65.7029 282.48 66.8334 282.541 68.0376C282.617 69.5425 283.476 71.0266 285.027 72.3296C285.034 72.3361 285.042 72.3426 285.051 72.349L298.307 82.7826C298.479 82.9177 298.688 82.9874 298.899 82.9874C299.029 82.9874 299.16 82.9608 299.283 82.9065L318.275 74.5577C318.602 74.4139 318.822 74.0992 318.844 73.7422L318.948 72.0873C319.225 67.6493 318.426 63.1518 316.636 59.081ZM308.891 60.1286C309.049 60.4867 309.399 60.7 309.767 60.7C309.895 60.7 310.026 60.674 310.151 60.6189C310.634 60.4065 310.854 59.8424 310.642 59.3591L308.751 55.0582L309.298 54.8204C310.776 54.1773 312.471 54.7522 313.24 56.1581C313.315 56.2949 313.385 56.4369 313.448 56.5802L314.886 59.8503C316.553 63.643 317.298 67.8333 317.04 71.9682L316.973 73.0418L299.039 80.9256L286.246 70.8564C285.136 69.9199 284.498 68.885 284.45 67.941C284.419 67.329 284.629 66.7591 285.074 66.2444C285.106 66.2189 285.137 66.1911 285.166 66.1609C286.311 64.9824 289.164 64.9009 290.655 65.9938L293.948 69.1564C294.133 69.3344 294.371 69.423 294.61 69.423C294.861 69.423 295.111 69.3246 295.299 69.1292C295.665 68.7485 295.653 68.1433 295.272 67.7775L292.068 64.7003L284.741 47.9283C284.099 46.4677 284.681 45.1732 285.44 44.4489C286.009 43.9058 286.88 43.6719 287.714 43.8385C288.657 44.0271 289.422 44.6886 289.867 45.7012L295.417 58.3263C295.575 58.6845 295.925 58.8978 296.293 58.8978C296.421 58.8978 296.552 58.8718 296.677 58.8167C297.16 58.6042 297.38 58.0402 297.167 57.5569L294.089 50.5548L295.404 49.9766C296.23 49.6138 296.885 49.5524 297.353 49.7941C297.683 49.9652 297.962 50.3044 298.181 50.8022L301.454 58.2478C301.611 58.606 301.962 58.8192 302.329 58.8192C302.458 58.8192 302.588 58.7932 302.714 58.7382C303.197 58.5257 303.417 57.9617 303.204 57.4783L300.318 50.9125L302.069 50.1538C302.073 50.1522 302.076 50.1507 302.08 50.1489C302.618 49.908 303.218 49.8923 303.77 50.105C304.325 50.3188 304.763 50.7361 305.002 51.28L308.891 60.1286Z" fill="black"/>
<path d="M312.726 73.9598C312.358 73.9598 312.008 73.7461 311.85 73.3875C311.638 72.904 311.858 72.3402 312.342 72.1282L313.285 71.7146C313.768 71.5024 314.332 71.7225 314.544 72.206C314.756 72.6895 314.536 73.2533 314.053 73.4654L313.11 73.879C312.985 73.9339 312.854 73.9598 312.726 73.9598Z" fill="black"/>
<path d="M299.793 79.6532C299.425 79.6532 299.074 79.4395 298.917 79.0809C298.705 78.5974 298.925 78.0336 299.408 77.8216L309.479 73.4045C309.963 73.1924 310.527 73.4125 310.738 73.8959C310.95 74.3794 310.731 74.9432 310.247 75.1552L300.176 79.5725C300.051 79.6273 299.921 79.6532 299.793 79.6532Z" fill="black"/>
<path d="M285.587 40.0833C285.143 40.0833 284.745 39.7724 284.651 39.3205L283.997 36.1493C283.89 35.6322 284.222 35.1265 284.739 35.0199C285.256 34.9134 285.762 35.2457 285.869 35.7627L286.524 38.9339C286.63 39.451 286.298 39.9567 285.781 40.0634C285.716 40.0768 285.651 40.0833 285.587 40.0833Z" fill="black"/>
<path d="M275.615 39.9373C275.444 39.9373 275.27 39.891 275.113 39.7939L274.453 39.385C274.004 39.107 273.865 38.5179 274.143 38.069C274.421 37.6201 275.011 37.4816 275.459 37.7597L276.12 38.1685C276.569 38.4465 276.707 39.0356 276.429 39.4845C276.248 39.7766 275.935 39.9373 275.615 39.9373Z" fill="black"/>
<path d="M280.85 43.4047C280.67 43.4047 280.487 43.3538 280.325 43.2474L278.286 41.9061C277.845 41.616 277.723 41.0232 278.013 40.5821C278.303 40.1411 278.896 40.0186 279.337 40.3087L281.376 41.65C281.817 41.9401 281.94 42.5329 281.649 42.974C281.466 43.2532 281.161 43.4047 280.85 43.4047Z" fill="black"/>
<path d="M276.67 49.7559C276.226 49.7559 275.828 49.445 275.735 48.9931C275.628 48.476 275.961 47.9703 276.478 47.8637L279.649 47.2089C280.166 47.1023 280.672 47.4347 280.778 47.9517C280.885 48.4688 280.553 48.9745 280.036 49.0812L276.864 49.736C276.799 49.7494 276.734 49.7559 276.67 49.7559Z" fill="black"/>
<path d="M280.885 57.3343C280.705 57.3343 280.522 57.2834 280.36 57.1769C279.919 56.8868 279.797 56.294 280.087 55.853L281.866 53.1476C282.156 52.7065 282.749 52.584 283.19 52.8742C283.631 53.1643 283.754 53.7571 283.464 54.1982L281.684 56.9035C281.501 57.1828 281.196 57.3343 280.885 57.3343Z" fill="black"/>
<path d="M294.6 45.817C294.156 45.817 293.758 45.5061 293.664 45.0543C293.558 44.5372 293.89 44.0316 294.407 43.9248L296.521 43.4882C297.039 43.3814 297.544 43.714 297.651 44.2311C297.758 44.7481 297.425 45.2538 296.908 45.3606L294.794 45.7972C294.729 45.8105 294.664 45.817 294.6 45.817Z" fill="black"/>
<path d="M300.545 44.5896C300.101 44.5896 299.703 44.2786 299.61 43.8269C299.503 43.3098 299.836 42.8041 300.353 42.6973L301.013 42.5609C301.531 42.4542 302.036 42.7868 302.143 43.3038C302.25 43.8208 301.917 44.3265 301.4 44.4333L300.739 44.5697C300.674 44.5831 300.609 44.5896 300.545 44.5896Z" fill="black"/>
<path d="M291.283 41.0823C291.103 41.0823 290.921 41.0315 290.759 40.925C290.318 40.6349 290.195 40.0421 290.485 39.601L292.265 36.8956C292.555 36.4546 293.148 36.332 293.589 36.6222C294.03 36.9124 294.152 37.5051 293.862 37.9462L292.083 40.6516C291.899 40.9308 291.594 41.0823 291.283 41.0823Z" fill="black"/>
<g clip-path="url(#clip0)">
<path d="M89.6565 102.836C87.5713 102.836 85.875 104.532 85.875 106.617C85.875 108.703 87.5713 110.399 89.6565 110.399C91.742 110.399 93.438 108.703 93.438 106.617C93.438 104.532 91.7417 102.836 89.6565 102.836ZM89.6565 108.508C88.6138 108.508 87.7658 107.66 87.7658 106.617C87.7658 105.575 88.6138 104.727 89.6565 104.727C90.6993 104.727 91.5473 105.575 91.5473 106.617C91.5473 107.66 90.6993 108.508 89.6565 108.508Z" fill="#BC0406"/>
<path d="M76.7386 102.836C74.6534 102.836 72.957 104.532 72.957 106.617C72.957 108.703 74.6534 110.399 76.7386 110.399C78.8237 110.399 80.5201 108.703 80.5201 106.617C80.5201 104.532 78.8237 102.836 76.7386 102.836ZM76.7386 108.508C75.6958 108.508 74.8478 107.66 74.8478 106.617C74.8478 105.575 75.6958 104.727 76.7386 104.727C77.781 104.727 78.6293 105.575 78.6293 106.617C78.6293 107.66 77.7813 108.508 76.7386 108.508Z" fill="#BC0406"/>
<path d="M92.2028 92.0123C92.042 91.6931 91.7153 91.4917 91.3579 91.4917H86.3789V93.3825H90.7749L93.3492 98.5026L95.0389 97.653L92.2028 92.0123Z" fill="#BC0406"/>
<path d="M86.8213 105.704H79.668V107.594H86.8213V105.704Z" fill="#BC0406"/>
<path d="M73.9023 105.704H70.625C70.1029 105.704 69.6797 106.127 69.6797 106.649C69.6797 107.171 70.1029 107.594 70.625 107.594H73.9024C74.4246 107.594 74.8477 107.171 74.8477 106.649C74.8477 106.127 74.4245 105.704 73.9023 105.704Z" fill="#BC0406"/>
<path d="M96.8026 99.9241L94.943 97.5291C94.7644 97.2985 94.4886 97.1636 94.1965 97.1636H87.3267V90.5459C87.3267 90.0237 86.9035 89.6006 86.3814 89.6006H70.625C70.1029 89.6006 69.6797 90.0238 69.6797 90.5459C69.6797 91.0681 70.1029 91.4913 70.625 91.4913H85.436V98.1089C85.436 98.6311 85.8592 99.0543 86.3813 99.0543H93.7335L95.1103 100.828V105.703H92.4947C91.9726 105.703 91.5494 106.127 91.5494 106.649C91.5494 107.171 91.9726 107.594 92.4947 107.594H96.0557C96.5778 107.594 97.001 107.171 97.0011 106.649V100.504C97.0011 100.294 96.9311 100.09 96.8026 99.9241Z" fill="#BC0406"/>
<path d="M73.8371 100.914H69.4883C68.9661 100.914 68.543 101.337 68.543 101.859C68.543 102.382 68.9662 102.805 69.4883 102.805H73.837C74.3592 102.805 74.7824 102.382 74.7824 101.859C74.7824 101.337 74.3592 100.914 73.8371 100.914Z" fill="#BC0406"/>
<path d="M76.0126 97.1953H67.9454C67.4232 97.1953 67 97.6185 67 98.1407C67 98.6629 67.4232 99.0861 67.9454 99.0861H76.0126C76.5348 99.0861 76.9579 98.6629 76.9579 98.1407C76.9579 97.6186 76.5348 97.1953 76.0126 97.1953Z" fill="#BC0406"/>
<path d="M77.5556 93.4771H69.4883C68.9661 93.4771 68.543 93.9003 68.543 94.4224C68.543 94.9446 68.9662 95.3678 69.4883 95.3678H77.5556C78.0778 95.3678 78.5009 94.9445 78.5009 94.4224C78.501 93.9003 78.0778 93.4771 77.5556 93.4771Z" fill="#BC0406"/>
</g>
<path d="M111.947 101.459H106.323L105.016 109H101.372L104.571 90.5156H114.524L113.979 93.626H107.682L106.856 98.3613H112.493L111.947 101.459ZM120.187 102.246H118.333L117.165 109H113.521L116.721 90.5156L122.307 90.5283C123.957 90.5791 125.222 91.0869 126.103 92.0518C126.983 93.0166 127.355 94.3327 127.22 96C127.008 98.5306 125.857 100.291 123.767 101.281L125.62 108.797V109H121.71L120.187 102.246ZM118.866 99.1357L120.783 99.1611C121.663 99.1442 122.357 98.7972 122.865 98.1201C123.373 97.4346 123.623 96.529 123.614 95.4033C123.58 94.2946 123.094 93.7064 122.154 93.6387L119.831 93.626L118.866 99.1357ZM138.265 101.002H132.628L131.777 105.902H138.455L137.909 109H127.601L130.8 90.5156H141.096L140.55 93.626H133.91L133.148 97.9932H138.798L138.265 101.002ZM154.667 93.626H150.236L147.57 109H143.914L146.58 93.626H142.213L142.759 90.5156H155.213L154.667 93.626ZM164.874 101.002H159.237L158.387 105.902H165.064L164.519 109H154.21L157.409 90.5156H167.705L167.159 93.626H160.52L159.758 97.9932H165.407L164.874 101.002ZM185.377 106.905C184.691 107.667 183.799 108.255 182.698 108.67C181.598 109.076 180.417 109.271 179.156 109.254C178.048 109.245 177.087 109.004 176.274 108.53C175.462 108.048 174.831 107.354 174.383 106.448C173.943 105.534 173.706 104.485 173.672 103.3C173.646 102.657 173.676 102.001 173.761 101.332L174.218 98.2725C174.607 95.6995 175.445 93.7106 176.731 92.3057C178.018 90.9007 179.694 90.2194 181.759 90.2617C183.519 90.2956 184.844 90.8288 185.732 91.8613C186.63 92.8854 187.087 94.4046 187.104 96.4189L183.562 96.4062L183.523 95.3906C183.413 94.0703 182.766 93.389 181.581 93.3467C179.829 93.279 178.678 94.4342 178.128 96.8125L177.938 97.7646L177.43 101.332C177.32 102.145 177.277 102.839 177.303 103.414C177.345 104.362 177.557 105.052 177.938 105.483C178.327 105.907 178.873 106.127 179.575 106.144C180.235 106.16 180.972 105.945 181.784 105.496L182.432 102.094H179.88L180.375 99.2754H186.545L185.377 106.905ZM194.226 102.246H192.372L191.204 109H187.561L190.76 90.5156L196.346 90.5283C197.996 90.5791 199.261 91.0869 200.142 92.0518C201.022 93.0166 201.394 94.3327 201.259 96C201.047 98.5306 199.896 100.291 197.806 101.281L199.659 108.797V109H195.749L194.226 102.246ZM192.905 99.1357L194.822 99.1611C195.702 99.1442 196.396 98.7972 196.904 98.1201C197.412 97.4346 197.662 96.529 197.653 95.4033C197.619 94.2946 197.133 93.7064 196.193 93.6387L193.87 93.626L192.905 99.1357ZM210.895 105.217H205.981L204.369 109H200.408L209.219 90.5156H212.558L214.982 109H211.212L210.895 105.217ZM207.314 102.106H210.641L210.12 95.5557L207.314 102.106ZM212.38 85.5645H216.519L212.469 89.5H209.346L212.38 85.5645ZM229.595 93.626H225.164L222.498 109H218.842L221.508 93.626H217.141L217.687 90.5156H230.141L229.595 93.626ZM232.934 109H229.29L232.502 90.5156H236.146L232.934 109ZM244.613 104.049C244.698 103.423 244.605 102.902 244.334 102.487C244.072 102.064 243.517 101.654 242.671 101.256C241.833 100.85 241.131 100.431 240.563 99.999C239.015 98.8226 238.304 97.3372 238.431 95.543C238.507 94.5104 238.828 93.5921 239.396 92.7881C239.971 91.9756 240.737 91.3451 241.693 90.8965C242.65 90.4479 243.674 90.2363 244.766 90.2617C246.348 90.2956 247.584 90.8457 248.473 91.9121C249.37 92.9701 249.785 94.3285 249.717 95.9873L246.086 95.9746C246.179 94.2396 245.625 93.3594 244.423 93.334C243.805 93.3171 243.272 93.5202 242.823 93.9434C242.383 94.3581 242.117 94.8955 242.023 95.5557C241.896 96.5459 242.582 97.3923 244.08 98.0947C245.578 98.7972 246.653 99.5885 247.305 100.469C248.033 101.442 248.341 102.627 248.231 104.023C248.104 105.632 247.47 106.918 246.327 107.883C245.185 108.839 243.758 109.3 242.049 109.267C240.331 109.233 238.972 108.649 237.974 107.515C236.975 106.381 236.518 104.929 236.603 103.16L240.259 103.173C240.191 104.265 240.331 105.048 240.678 105.521C241.033 105.987 241.588 106.22 242.341 106.22C243.001 106.211 243.521 106.008 243.902 105.61C244.283 105.204 244.52 104.684 244.613 104.049Z" fill="#BC0406"/>
<g clip-path="url(#clip1)">
<path d="M33.9539 86.025C33.9539 85.5172 34.1523 85.0192 34.5269 84.644L39.3 79.8608C39.8539 79.3057 40.5907 79 41.3748 79C42.1589 79 42.8959 79.3057 43.4498 79.8608L48.223 84.644C48.7841 85.2061 48.9498 86.0436 48.6454 86.7776C48.3414 87.5106 47.6326 87.9842 46.8399 87.9842L42.3516 87.9842C42.3516 95.7383 48.6601 102.047 56.4143 102.047L57.9766 102.047C58.516 102.047 58.9531 102.484 58.9531 103.023C58.9531 103.563 58.516 104 57.9766 104L56.4143 104C52.1363 104 48.1142 102.334 45.0892 99.3091C42.0643 96.284 40.3982 92.2622 40.3982 87.9842C40.3982 86.9071 41.2745 86.0309 42.3514 86.0309L46.8399 86.0309C46.8401 86.0309 46.8403 86.0309 46.8405 86.0309C46.8413 86.0293 46.842 86.0274 46.8426 86.0257C46.8418 86.0251 46.8413 86.0244 46.8405 86.0236L42.0672 81.2404C41.8824 81.0552 41.6365 80.9531 41.3748 80.9531C41.1131 80.9531 40.8673 81.0552 40.6824 81.2404L35.9093 86.0236L35.9072 86.0257C35.9078 86.0274 35.9083 86.0293 35.9091 86.0309C35.9093 86.0309 35.9095 86.0309 35.9099 86.0309L36.9803 86.0309C37.5197 86.0309 37.9568 86.4682 37.9568 87.0076C37.9568 87.5468 37.5197 87.9842 36.9803 87.9842L35.9099 87.9842C35.1172 87.9842 34.4084 87.5106 34.1044 86.7776C34.0031 86.5336 33.9539 86.2781 33.9539 86.025Z" fill="#BC0406"/>
</g>
<g clip-path="url(#clip2)">
<path d="M278.082 86.025C278.082 85.5172 277.884 85.0192 277.509 84.644L272.736 79.8608C272.182 79.3057 271.445 79 270.661 79C269.877 79 269.14 79.3057 268.586 79.8608L263.813 84.644C263.251 85.2061 263.086 86.0436 263.39 86.7776C263.694 87.5106 264.403 87.9842 265.196 87.9842L269.684 87.9842C269.684 95.7383 263.375 102.047 255.621 102.047L254.059 102.047C253.519 102.047 253.082 102.484 253.082 103.023C253.082 103.563 253.519 104 254.059 104L255.621 104C259.899 104 263.921 102.334 266.946 99.3091C269.971 96.284 271.637 92.2622 271.637 87.9842C271.637 86.9071 270.761 86.0309 269.684 86.0309L265.196 86.0309C265.195 86.0309 265.195 86.0309 265.195 86.0309C265.194 86.0293 265.193 86.0274 265.193 86.0257C265.194 86.0251 265.194 86.0244 265.195 86.0236L269.968 81.2404C270.153 81.0552 270.399 80.9531 270.661 80.9531C270.923 80.9531 271.168 81.0552 271.353 81.2404L276.127 86.0236L276.129 86.0257C276.128 86.0274 276.128 86.0293 276.127 86.0309C276.127 86.0309 276.126 86.0309 276.126 86.0309L275.056 86.0309C274.516 86.0309 274.079 86.4682 274.079 87.0076C274.079 87.5468 274.516 87.9842 275.056 87.9842L276.126 87.9842C276.919 87.9842 277.627 87.5106 277.932 86.7776C278.033 86.5336 278.082 86.2781 278.082 86.025Z" fill="#BC0406"/>
</g>
<defs>
<filter id="filter0_d" x="0" y="0" width="315" height="78" filterUnits="userSpaceOnUse" color-interpolation-filters="sRGB">
<feFlood flood-opacity="0" result="BackgroundImageFix"/>
<feColorMatrix in="SourceAlpha" type="matrix" values="0 0 0 0 0 0 0 0 0 0 0 0 0 0 0 0 0 0 127 0"/>
<feOffset dy="4"/>
<feGaussianBlur stdDeviation="2"/>
<feColorMatrix type="matrix" values="0 0 0 0 0 0 0 0 0 0 0 0 0 0 0 0 0 0 0.25 0"/>
<feBlend mode="normal" in2="BackgroundImageFix" result="effect1_dropShadow"/>
<feBlend mode="normal" in="SourceGraphic" in2="effect1_dropShadow" result="shape"/>
</filter>
<filter id="filter1_i" x="24.3164" y="23.2144" width="245.507" height="28.1119" filterUnits="userSpaceOnUse" color-interpolation-filters="sRGB">
<feFlood flood-opacity="0" result="BackgroundImageFix"/>
<feBlend mode="normal" in="SourceGraphic" in2="BackgroundImageFix" result="shape"/>
<feColorMatrix in="SourceAlpha" type="matrix" values="0 0 0 0 0 0 0 0 0 0 0 0 0 0 0 0 0 0 127 0" result="hardAlpha"/>
<feOffset dy="4"/>
<feGaussianBlur stdDeviation="2"/>
<feComposite in2="hardAlpha" operator="arithmetic" k2="-1" k3="1"/>
<feColorMatrix type="matrix" values="0 0 0 0 0 0 0 0 0 0 0 0 0 0 0 0 0 0 0.25 0"/>
<feBlend mode="normal" in2="shape" result="effect1_innerShadow"/>
</filter>
<linearGradient id="paint0_linear" x1="157.5" y1="5" x2="157.5" y2="65" gradientUnits="userSpaceOnUse">
<stop stop-color="#FFF946"/>
<stop offset="1" stop-color="#FFC828"/>
</linearGradient>
<clipPath id="clip0">
<rect width="30" height="30" fill="white" transform="translate(67 85)"/>
</clipPath>
<clipPath id="clip1">
<rect width="25" height="25" fill="white" transform="translate(59 79) rotate(90)"/>
</clipPath>
<clipPath id="clip2">
<rect width="43" height="42" fill="white" transform="matrix(-4.37114e-08 1 1 4.37114e-08 253 79)"/>
</clipPath>
</defs>
</svg>
